<svg width="672" height="703" viewBox="0 0 672 703" fill="none" xmlns="http://www.w3.org/2000/svg">
<g clip-path="url(#clip0_3062_34)">
<path d="M369.026 702.096C262.226 695.976 175.226 668.416 111.666 620.566C99.8964 611.716 78.6464 589.916 71.3764 579.256C64.2464 568.796 56.9764 554.836 56.7064 551.116C56.5364 548.746 58.5764 547.356 81.5264 534.106C111.906 516.566 145.616 496.396 156.776 489.066L165.026 483.646V434.176C165.026 380.306 165.076 379.756 170.646 376.106C173.176 374.446 176.756 374.226 209.476 373.776L245.526 373.276L245.376 344.776C245.296 329.106 244.906 255.896 244.516 182.096L243.816 47.9059L251.816 43.8759C275.146 32.1559 309.976 19.2559 335.526 12.8959C398.516 -2.80413 460.616 -4.15412 525.026 8.76588C568.946 17.5759 591.926 29.0659 599.586 46.0659C603.276 54.2459 604.026 65.7159 601.556 76.0559C599.486 84.7059 593.416 98.0959 588.426 105.056L584.796 110.106L591.856 124.686C600.096 141.696 602.686 148.766 606.926 165.796C608.636 172.656 611.626 183.446 613.576 189.776C615.526 196.106 618.296 205.166 619.726 209.906L622.346 218.546L630.436 219.216C648.536 220.726 668.966 227.876 671.106 233.456C672.566 237.266 671.446 243.526 668.556 247.776C666.896 250.206 665.546 254.786 664.126 262.776C659.056 291.406 650.526 305.136 634.876 309.886C629.126 311.636 628.056 312.296 628.526 313.786C628.846 314.776 629.506 318.076 629.996 321.116C632.256 334.986 624.176 343.116 607.276 343.956C604.936 344.076 603.026 344.456 603.026 344.816C603.026 345.176 604.756 349.026 606.876 353.376C613.966 367.926 614.526 370.496 614.526 388.276C614.526 397.076 613.926 410.126 613.196 417.276C612.146 427.506 612.106 433.156 612.996 443.776C614.946 467.276 615.396 487.746 614.076 494.036C611.406 506.856 602.326 519.796 590.896 527.066C569.716 540.526 531.106 543.286 489.546 534.306C483.126 532.916 477.556 531.776 477.166 531.776C476.786 531.776 473.146 538.486 469.076 546.676L461.676 561.586L475.486 574.926C498.716 597.356 513.106 615.826 528.756 643.276C537.096 657.916 548.966 686.446 547.626 688.616C547.326 689.106 545.606 689.776 543.796 690.096C487.936 700.186 457.926 702.896 405.526 702.586C388.476 702.486 372.056 702.266 369.026 702.096ZM421.056 568.276C435.036 545.906 448.026 524.466 448.026 523.756C448.026 523.466 441.396 520.086 433.286 516.256C366.006 484.406 317.146 433.266 297.906 374.526L293.566 361.276L288.296 377.036C278.486 406.336 267.346 425.526 250.076 442.866C240.596 452.386 227.076 463.066 219.466 467.056L216.646 468.536L230.586 482.426C272.626 524.306 321.286 555.956 399.026 591.976L404.526 594.526L407.166 590.406C408.616 588.136 414.876 578.176 421.056 568.276ZM186.856 468.446C189.976 466.066 199.506 459.146 208.026 453.066C216.546 446.996 225.626 439.776 228.186 437.036C235.936 428.746 241.126 416.516 243.656 400.586C244.986 392.146 245.026 390.396 243.886 389.666C243.136 389.196 228.926 388.796 212.316 388.796C183.456 388.776 182.046 388.866 181.066 390.706C179.966 392.746 179.526 472.776 180.606 472.776C180.916 472.776 183.736 470.826 186.856 468.446ZM558.236 439.756C560.656 436.776 560.476 434.026 557.556 429.276C554.356 424.086 554.296 419.406 557.396 416.316C560.626 413.086 565.846 411.656 576.526 411.066C583.796 410.666 586.646 410.946 591.366 412.546L597.206 414.526L599.046 411.506C603.016 404.976 602.326 392.076 597.876 389.696C596.656 389.046 594.026 388.846 591.496 389.226C588.746 389.646 584.906 389.276 580.856 388.226C568.026 384.886 539.386 389.276 529.346 396.116C521.436 401.506 516.566 414.596 519.026 423.816C522.716 437.606 550.746 449.006 558.236 439.756ZM490.706 398.026C495.556 392.666 503.576 384.206 508.526 379.226C518.096 369.586 524.136 365.886 544.906 356.876C550.066 354.636 556.366 351.576 558.906 350.076L563.526 347.346L558.806 346.646C556.206 346.266 552.666 344.946 550.936 343.716C545.536 339.866 543.386 331.556 546.616 326.946C548.536 324.206 550.376 325.286 552.526 330.436C553.416 332.556 555.226 334.386 557.546 335.486C561.146 337.206 561.286 337.186 571.026 333.826L580.866 330.426L590.766 331.746C604.086 333.506 611.376 332.586 615.316 328.636C619.876 324.076 618.936 320.266 608.426 300.726C597.886 281.116 586.596 256.886 585.386 251.276C584.706 248.126 583.766 246.866 580.966 245.366C576.726 243.096 572.646 243.756 570.906 246.996C570.266 248.196 568.916 253.446 567.906 258.666C565.526 270.936 563.656 276.576 558.866 285.876C550.166 302.786 535.046 311.806 515.466 311.756C494.196 311.706 477.396 302.446 469.526 286.436C465.386 278.006 461.536 263.526 460.196 251.276C458.776 238.386 458.516 238.206 441.236 238.526C433.696 238.666 409.106 239.906 386.596 241.276C364.086 242.656 345.136 243.776 344.486 243.776C343.146 243.776 340.546 255.216 339.046 267.746C337.566 280.036 337.816 300.106 339.536 308.246C344.836 333.266 363.716 352.516 403.026 373.016C423.946 383.926 476.846 407.746 480.206 407.766C481.136 407.776 485.856 403.386 490.706 398.026ZM526.306 298.706C543.586 295.376 553.206 279.596 554.706 252.136C555.256 242.076 555.106 240.576 553.186 236.636C548.236 226.496 530.726 220.966 507.026 222.066C481.996 223.226 475.996 228.666 476.046 250.206C476.086 270.086 479.416 281.466 487.496 289.396C493.226 295.016 500.516 298.346 509.976 299.676C515.636 300.466 517.866 300.336 526.306 298.706ZM636.026 297.896C645.386 293.196 653.826 269.246 652.856 250.146C652.496 242.916 652.316 242.426 648.836 239.236C643.736 234.566 638.526 233.286 624.526 233.286C604.676 233.276 600.026 236.406 600.026 249.786C600.026 257.496 602.076 265.586 606.476 275.246C610.196 283.396 617.626 295.326 620.626 297.936C624.236 301.086 629.716 301.076 636.026 297.896ZM593.756 226.256C596.286 224.326 600.556 221.956 603.236 221.006C609.086 218.936 609.396 221.726 600.056 192.776C596.236 180.946 591.566 166.326 589.686 160.276C585.616 147.236 577.406 127.796 572.226 118.956L568.526 112.626L561.526 113.216C553.926 113.856 537.666 112.496 526.526 110.276C471.046 99.2459 430.546 93.4959 398.636 92.1359L382.736 91.4559L386.916 97.6159C399.506 116.156 405.766 144.276 401.556 163.366C397.336 182.496 388.786 194.706 369.096 209.736C364.936 212.916 359.496 217.356 357.026 219.606L352.526 223.696L360.526 223.726C364.926 223.736 384.726 222.636 404.526 221.276C424.326 219.906 444.406 218.786 449.146 218.786C456.006 218.776 458.236 218.396 460.146 216.916C464.316 213.666 468.746 211.806 477.756 209.546C485.456 207.596 489.136 207.336 508.026 207.346C527.166 207.356 530.406 207.606 537.526 209.586C550.366 213.156 559.036 217.746 563.956 223.576L568.226 228.646L574.876 228.096C578.536 227.806 583.106 228.016 585.026 228.576C586.946 229.136 588.666 229.636 588.836 229.686C589.006 229.736 591.216 228.196 593.756 226.256ZM68.2464 517.026C67.1364 516.066 65.9364 513.966 65.5664 512.356C64.7964 508.976 63.6964 510.076 94.8664 483.246C105.506 474.086 115.726 465.966 117.586 465.186C119.826 464.246 124.816 463.776 132.426 463.776C143.606 463.776 143.926 463.836 145.956 466.406C148.676 469.876 148.566 472.326 145.576 475.326C143.276 477.616 142.426 477.776 132.656 477.776H122.196L117.676 481.526C115.186 483.586 104.336 492.816 93.5564 502.026C82.7764 511.236 73.1164 518.776 72.0964 518.776C71.0864 518.776 69.3464 517.986 68.2464 517.026ZM38.1664 506.406C33.3464 504.666 27.3264 499.296 24.9364 494.596C22.0464 488.926 22.0664 479.386 24.9964 473.346C30.3064 462.376 43.4364 457.576 55.7664 462.116C62.4964 464.596 67.5564 462.546 80.1064 452.236C95.7464 439.396 100.186 436.166 103.926 434.916C105.966 434.226 114.616 433.776 125.606 433.776H143.876L145.956 436.406C148.676 439.876 148.566 442.326 145.576 445.326C143.146 447.746 142.886 447.776 125.296 447.776C110.216 447.776 107.086 448.036 104.996 449.466C99.1264 453.476 73.8764 475.076 72.3664 477.386C71.4464 478.786 70.3064 482.406 69.8364 485.446C69.3564 488.486 68.1064 492.656 67.0564 494.716C64.8064 499.126 59.0164 504.466 54.3764 506.406C50.3964 508.066 42.7464 508.066 38.1664 506.406ZM53.1064 490.856C56.3664 487.596 56.7764 484.496 54.6264 479.356C51.6764 472.296 40.6264 472.716 37.5764 479.986C35.7364 484.406 36.6464 488.276 40.2264 491.286C44.4064 494.806 49.3164 494.646 53.1064 490.856ZM82.0264 416.066C81.1964 415.766 76.4864 413.506 71.5464 411.046C62.5364 406.576 54.8864 404.846 49.7764 406.126C48.4464 406.456 45.6764 408.066 43.6264 409.696C38.6664 413.636 30.5764 415.356 24.2164 413.816C5.9964 409.406 -0.8036 387.116 11.8864 373.436C21.0664 363.546 38.8564 363.986 47.9364 374.326C49.5964 376.216 51.4164 379.526 52.0064 381.686C53.2264 386.226 57.4064 390.176 64.0264 393.046C66.5064 394.116 72.4664 396.746 77.2764 398.886L86.0264 402.776H114.396C141.576 402.776 142.866 402.866 145.396 404.846C148.616 407.386 148.906 411.896 146.026 414.776C144.106 416.696 142.746 416.776 113.776 416.696C97.1364 416.656 82.8564 416.366 82.0264 416.066ZM36.5764 397.326C39.4764 394.416 39.9564 387.546 37.4964 384.036C35.6264 381.366 30.0164 379.686 26.2864 380.676C22.4064 381.706 18.7164 387.426 19.4564 391.276C20.8964 398.866 31.3364 402.556 36.5764 397.326ZM122.026 383.836C120.106 382.806 100.876 363.986 79.3064 342.006C57.0864 319.356 38.5964 301.326 36.6564 300.406C34.5664 299.416 30.5464 298.756 26.3764 298.736C14.6664 298.656 6.9164 294.436 2.5164 285.746C-0.243596 280.306 -0.793602 272.526 1.1664 266.676C5.4564 253.856 21.0264 247.986 33.8364 254.366C43.4564 259.166 47.9764 268.006 46.6464 279.386C46.2064 283.116 46.4564 285.866 47.4564 288.256C48.3664 290.426 63.6864 306.616 88.3564 331.476L127.806 371.226L135.666 371.606C141.886 371.896 143.996 372.406 145.776 374.046C148.396 376.466 148.686 380.396 146.466 383.556C145.036 385.596 144.126 385.776 135.216 385.736C127.766 385.696 124.716 385.256 122.026 383.836ZM28.3664 283.666C35.5464 280.396 34.0864 269.116 26.0564 265.786C18.1364 262.506 11.2364 271.566 15.1364 280.126C17.0564 284.336 23.2564 285.996 28.3664 283.666ZM215.466 358.356C213.756 357.116 213.466 355.296 212.996 343.106C212.586 332.436 212.076 328.706 210.776 326.776C209.846 325.396 202.756 318.656 195.026 311.776C183.786 301.786 180.416 298.176 178.246 293.776L175.526 288.276L175.246 234.556C174.976 181.746 175.006 180.796 176.996 178.806C179.906 175.896 184.406 176.176 186.956 179.406C188.986 181.996 189.026 182.966 189.026 233.006C189.026 277.636 189.226 284.396 190.626 287.346C191.506 289.196 197.016 295.056 202.876 300.376C216.756 312.966 222.936 319.526 224.646 323.496C225.616 325.756 226.026 331.146 226.026 341.686C226.026 356.026 225.936 356.726 223.806 358.216C221.036 360.156 217.996 360.206 215.466 358.356ZM182.396 356.326C180.696 355.136 180.216 353.416 179.706 346.576L179.086 338.276L163.386 322.776C151.326 310.866 147.096 306.006 145.106 301.776L142.526 296.276L142.026 222.726C141.466 140.116 142.156 147.126 133.836 139.916C127.826 134.716 125.746 129.766 126.196 121.756C126.646 113.776 129.716 108.326 136.176 104.056C141.826 100.326 151.876 99.6259 157.616 102.586C172.026 110.006 175.456 127.886 164.486 138.446C155.926 146.696 156.566 140.456 156.246 219.156C155.996 279.136 156.176 289.776 157.476 294.236C159.156 300.036 158.826 299.646 176.086 316.246C193.596 333.096 193.026 332.166 193.026 343.966C193.026 352.446 192.756 354.046 191.026 355.776C188.666 358.136 185.286 358.346 182.396 356.326ZM154.876 128.066C159.536 122.836 155.596 114.776 148.366 114.776C139.316 114.776 136.756 127.286 145.116 130.706C148.536 132.106 152.146 131.126 154.876 128.066ZM136.876 340.026C113.096 315.886 109.296 311.416 107.516 305.446C106.336 301.446 105.996 294.206 105.946 271.706C105.866 235.706 107.046 238.886 86.0664 218.276C64.5864 197.176 66.0464 201.506 66.0364 158.966C66.0264 136.906 65.6264 123.066 64.8964 120.196C64.0864 116.966 62.5864 114.676 59.4864 111.946C52.7264 106.006 50.5164 101.466 50.5764 93.6959C50.6264 88.3959 51.1664 86.2159 53.3764 82.4459C61.8664 67.9459 84.6264 68.2859 92.1564 83.0259C97.1664 92.8459 95.4364 102.596 87.3064 110.356C84.1864 113.326 81.5764 116.846 81.0064 118.846C80.4564 120.766 80.0264 136.806 80.0264 155.556C80.0264 182.846 80.2964 189.486 81.5264 192.426C82.3964 194.506 89.1264 202.116 97.6464 210.636C105.696 218.686 113.286 226.626 114.516 228.276C119.466 234.916 120.026 239.046 120.026 269.086C120.026 287.886 120.416 298.396 121.226 301.156C122.196 304.476 126.236 309.156 142.066 325.276C162.106 345.686 164.216 348.646 161.896 353.046C160.376 355.946 159.096 356.746 155.956 356.756C153.946 356.776 149.786 353.126 136.876 340.026ZM113.826 259.436C113.456 255.746 111.556 254.916 110.026 257.776C108.736 260.196 109.956 262.446 112.566 262.446C113.706 262.446 114.046 261.626 113.826 259.436ZM78.5764 100.326C80.2664 98.6259 81.0264 96.7559 81.0264 94.2759C81.0264 91.7959 80.2664 89.9259 78.5764 88.2259C73.6264 83.2859 64.0264 86.6159 64.0264 93.2759C64.0264 96.3359 66.4464 101.376 68.2564 102.106C71.6364 103.466 76.2164 102.676 78.5764 100.326ZM204.946 284.856L202.026 281.926L202.006 192.606C201.976 91.7859 202.556 99.1759 194.056 91.3859C188.856 86.6259 187.016 82.4659 187.046 75.5559C187.116 59.8459 201.026 50.1459 216.126 55.2959C222.266 57.3859 225.686 60.8259 226.516 65.7259C226.896 67.9559 227.616 69.7759 228.116 69.7759C228.616 69.7759 228.936 70.1159 228.826 70.5259C228.716 70.9359 228.976 72.2759 229.386 73.5059C230.786 77.6259 227.366 87.8359 223.106 92.2759C216.026 99.6459 216.526 91.9959 216.526 192.616V283.956L214.166 285.866C210.876 288.526 208.346 288.256 204.946 284.856ZM214.396 81.7059C220.116 77.2059 216.176 67.7759 208.576 67.7759C203.746 67.7759 201.026 70.6359 201.026 75.7059C201.026 80.2859 204.486 83.7759 209.026 83.7759C210.526 83.7759 212.946 82.8459 214.396 81.7059ZM228.246 76.2159C229.116 75.3559 227.966 71.9659 226.636 71.4559C225.896 71.1759 225.346 72.1159 225.216 73.8859C225.016 76.5559 226.656 77.8159 228.246 76.2159Z" fill="#F6FAF9"/>
</g>
<defs>
<clipPath id="clip0_3062_34">
<rect width="671.746" height="702.609" fill="white"/>
</clipPath>
</defs>
</svg>
