<svg width="418" height="398" viewBox="0 0 418 398" fill="none" xmlns="http://www.w3.org/2000/svg">
<g clip-path="url(#clip0_703_41)">
<path d="M82.2998 69.7843C96.1598 69.7843 110.02 69.7843 124.3 69.7843C124.3 140.074 124.3 210.364 124.3 282.784C133.192 282.579 133.192 282.579 138.714 278.214C139.413 277.482 140.111 276.75 140.831 275.995C141.522 275.224 142.213 274.454 142.925 273.659C144.331 272.154 145.74 270.652 147.151 269.152C148.176 268.05 148.176 268.05 149.221 266.926C151.843 264.225 154.628 261.773 157.502 259.345C159.357 257.734 161.082 256.04 162.8 254.284C165.19 251.85 167.65 249.571 170.237 247.347C173.046 244.928 175.7 242.425 178.3 239.784C181.403 236.639 184.618 233.714 187.964 230.831C195.14 224.543 202.198 218.063 208.87 211.241C210.275 209.809 211.725 208.421 213.175 207.034C215.919 204.129 216.252 202.306 216.612 198.347C216.618 194.762 216.618 194.762 214.487 192.409C211.112 189.902 208.36 189.65 204.278 189.579C202.746 189.549 202.746 189.549 201.184 189.519C200.084 189.502 198.984 189.485 197.851 189.468C196.159 189.437 196.159 189.437 194.433 189.405C190.826 189.34 187.219 189.281 183.612 189.222C181.169 189.179 178.726 189.135 176.282 189.091C170.288 188.983 164.294 188.884 158.3 188.784C158.3 175.584 158.3 162.384 158.3 148.784C166.169 148.721 174.038 148.661 181.908 148.629C185.574 148.613 189.24 148.592 192.905 148.558C196.446 148.525 199.986 148.507 203.526 148.5C205.513 148.492 207.5 148.468 209.487 148.444C224.729 148.442 238.175 152.235 249.519 162.812C258.992 173.303 261.148 185.283 260.71 198.952C259.583 216.803 249.203 230.01 236.339 241.542C235.085 242.637 233.826 243.725 232.562 244.808C229.586 247.408 226.696 250.096 223.8 252.784C220.337 255.996 216.873 259.195 213.3 262.284C209.627 265.461 206.055 268.741 202.487 272.034C201.641 272.815 201.641 272.815 200.778 273.611C197.592 276.559 197.592 276.559 194.538 279.644C193.3 280.784 193.3 280.784 191.3 280.784C191.3 281.444 191.3 282.104 191.3 282.784C234.2 282.784 277.1 282.784 321.3 282.784C321.3 296.314 321.3 309.844 321.3 323.784C242.43 323.784 163.56 323.784 82.2998 323.784C82.2998 239.964 82.2998 156.144 82.2998 69.7843Z" fill="#FCFCFC"/>
<path d="M33.1745 2.34683C37.2597 5.53328 40.959 9.10334 43.2995 13.7843C161.769 14.1143 280.239 14.4443 402.299 14.7843C402.299 183.972 402.299 183.972 402.237 237.465C402.257 253.239 402.257 253.239 402.287 269.012C402.301 276.058 402.292 283.103 402.269 290.149C402.242 298.27 402.243 306.389 402.278 314.51C402.295 318.666 402.299 322.822 402.268 326.978C402.241 330.735 402.25 334.489 402.288 338.246C402.299 340.252 402.271 342.259 402.241 344.265C402.121 350.5 402.12 350.5 405.082 355.646C407.109 356.907 409.118 357.83 411.299 358.784C413.139 360.917 413.139 360.917 414.237 362.909C414.617 363.572 414.998 364.234 415.389 364.917C418.178 370.638 417.907 376.352 416.237 382.347C414.003 388.448 409.765 392.007 404.612 395.722C398.857 397.568 392.651 398.072 386.921 395.87C381.957 392.95 377.895 388.975 375.299 383.784C256.499 383.454 137.699 383.124 15.2995 382.784C14.9695 270.584 14.6395 158.384 14.2995 42.7843C12.3195 41.7943 10.3395 40.8043 8.29948 39.7843C3.10356 35.299 0.839389 30.4494 0.0494839 23.6242C-0.267646 17.8465 0.915316 13.4983 4.29948 8.78432C11.402 1.02835 23.2694 -2.79321 33.1745 2.34683ZM39.6173 33.6849C39.1824 34.7077 38.7475 35.7305 38.2995 36.7843C36.0272 38.7861 34.0028 40.4327 31.2995 41.7843C31.2995 149.364 31.2995 256.944 31.2995 367.784C144.819 367.784 258.339 367.784 375.299 367.784C376.784 364.319 376.784 364.319 378.299 360.784C380.553 358.227 383.241 356.313 386.299 354.784C386.299 247.864 386.299 140.944 386.299 30.7843C325.257 30.6096 325.257 30.6096 264.214 30.4914C255.991 30.4796 247.769 30.4675 239.547 30.4547C238.516 30.4532 237.485 30.4516 236.424 30.4499C219.771 30.4238 203.119 30.3765 186.467 30.3214C169.386 30.2654 152.305 30.232 135.223 30.2198C124.677 30.2115 114.132 30.1855 103.586 30.1368C96.3612 30.1052 89.1363 30.0955 81.9111 30.1033C77.7383 30.1072 73.5661 30.1011 69.3934 30.0691C65.5761 30.04 61.7598 30.0384 57.9424 30.0589C56.5587 30.0615 55.175 30.0538 53.7915 30.035C45.8446 29.603 45.8446 29.603 39.6173 33.6849Z" fill="#FCFCFC"/>
<path d="M162.3 70.7843C223.35 70.7843 284.4 70.7843 347.3 70.7843C347.3 84.6443 347.3 98.5043 347.3 112.784C339.05 112.784 330.8 112.784 322.3 112.784C322.3 161.294 322.3 209.804 322.3 259.784C308.77 259.784 295.24 259.784 281.3 259.784C281.3 211.274 281.3 162.764 281.3 112.784C242.03 112.784 202.76 112.784 162.3 112.784C162.3 98.9243 162.3 85.0643 162.3 70.7843Z" fill="#FCFCFC"/>
</g>
<defs>
<clipPath id="clip0_703_41">
<rect width="417.492" height="397.324" fill="white"/>
</clipPath>
</defs>
</svg>
