<svg width="722" height="768" viewBox="0 0 722 768" fill="none" xmlns="http://www.w3.org/2000/svg">
<g clip-path="url(#clip0_3054_766)">
<path d="M331.592 2.24239C298.525 10.6424 271.325 35.7091 260.258 68.2424L256.658 78.909L255.858 276.909H174.925C130.392 276.909 89.5915 277.576 84.2582 278.242C62.7915 281.042 42.6582 291.309 26.5248 307.576C-1.20849 335.442 -8.00849 379.976 9.99151 415.576C18.9248 433.576 36.2582 450.776 53.9915 459.576C73.1915 469.042 75.3248 469.309 125.858 469.976C169.192 470.376 170.925 470.376 169.992 467.976C166.525 459.176 166.525 437.442 169.992 428.509C170.925 426.376 168.525 426.242 131.592 426.242C96.6582 426.242 91.3248 425.976 84.1248 423.709C67.9915 418.642 57.3248 409.442 50.1248 394.242C46.3915 386.509 45.9915 384.242 45.9915 373.576C46.1248 363.042 46.5248 360.509 50.1248 352.909C57.3248 337.576 67.7248 328.509 83.7248 323.576C91.8582 321.042 96.3915 320.909 172.125 320.909H252.125L267.325 312.509C275.725 307.976 293.592 298.242 306.925 290.909L331.325 277.576L301.325 276.776V187.042C301.325 134.109 301.858 94.509 302.658 90.3757C307.591 64.3757 330.392 44.909 355.858 44.909C382.525 44.909 402.925 61.309 409.992 88.2424C411.592 94.509 411.992 104.642 411.992 137.709C411.992 193.842 409.725 208.642 397.325 233.842C381.325 266.242 358.525 285.976 295.992 321.576C228.658 359.842 203.725 382.776 191.858 417.442C186.525 432.642 185.458 449.309 188.525 466.509C192.792 490.109 204.258 510.509 224.525 530.776L236.392 542.776L238.658 533.442C241.592 520.909 248.925 503.442 256.658 490.376C262.392 480.909 266.125 475.709 278.525 460.776L281.725 456.909H230.658V453.842C230.658 448.376 234.658 434.242 237.858 427.842C248.925 406.109 268.125 390.909 325.725 358.509C340.125 350.242 357.858 339.709 365.058 335.042C412.525 303.576 439.725 268.642 452.258 222.909L456.658 206.909V144.242C456.658 82.2424 456.658 81.4424 453.592 71.5757C442.792 37.5757 416.792 11.9757 383.325 2.77572C370.658 -0.690946 344.392 -0.957613 331.592 2.24239Z" fill="url(#paint0_linear_3054_766)"/>
<path d="M479.992 224.109C479.992 229.309 473.592 249.842 468.525 260.642C462.392 274.109 448.925 293.976 437.992 305.842L429.058 315.576H455.192C485.458 315.576 483.592 314.376 477.858 330.509C468.925 355.176 451.192 371.576 407.992 394.909C387.992 405.709 365.592 418.909 351.992 428.109C299.058 463.442 266.125 509.442 257.992 559.576C255.192 577.442 255.058 673.709 257.992 687.309C267.592 733.042 304.925 765.042 351.058 767.309C368.125 768.109 380.392 766.242 394.792 760.776C416.392 752.509 436.792 733.709 447.058 712.509C457.725 690.909 457.325 695.176 457.325 585.176V487.709L644.658 486.909L653.992 483.709C687.325 472.509 711.592 447.576 719.458 416.509C723.192 402.109 722.658 379.442 718.258 365.976C709.858 339.709 689.192 316.509 665.725 306.909C649.858 300.509 640.792 299.576 593.858 299.576C552.925 299.576 550.392 299.709 551.325 301.842C553.325 306.776 553.592 329.442 551.592 336.509L549.725 343.442L593.858 343.842C636.392 344.242 638.258 344.376 645.592 347.309C656.392 351.709 666.925 361.709 672.258 372.642C676.258 380.642 676.658 382.642 676.658 392.909C676.658 402.376 675.992 405.576 673.058 411.842C665.858 427.176 651.325 438.376 633.592 442.109C628.925 443.042 598.258 443.576 541.058 443.576H455.592L442.792 450.509C422.925 461.176 412.525 467.176 396.658 477.442L382.125 486.909L411.992 487.709V579.976C411.992 678.909 411.992 679.976 405.192 693.176C400.392 702.642 390.258 712.109 379.592 717.042C370.658 721.176 369.058 721.576 356.658 721.576C344.525 721.576 342.525 721.176 334.658 717.442C323.592 712.242 316.925 706.376 310.525 696.509C301.858 683.042 301.058 676.776 301.592 620.109C302.258 563.576 302.658 560.509 314.525 536.109C333.192 498.109 361.992 473.042 427.992 437.576C471.192 414.242 489.192 400.776 506.525 378.376C513.325 369.576 521.725 352.509 524.792 340.909C527.992 329.176 527.992 302.376 524.925 289.576C522.125 278.376 513.058 259.042 505.192 247.442C499.458 238.776 483.192 220.909 481.058 220.909C480.525 220.909 479.992 222.376 479.992 224.109Z" fill="url(#paint1_linear_3054_766)"/>
</g>
<defs>
<linearGradient id="paint0_linear_3054_766" x1="722" y1="767" x2="2.59958e-05" y2="3.65645e-05" gradientUnits="userSpaceOnUse">
<stop stop-color="#192C50"/>
<stop offset="0.793269" stop-color="#71DCC6"/>
</linearGradient>
<linearGradient id="paint1_linear_3054_766" x1="722" y1="767" x2="2.59958e-05" y2="3.65645e-05" gradientUnits="userSpaceOnUse">
<stop stop-color="#192C50"/>
<stop offset="0.793269" stop-color="#71DCC6"/>
</linearGradient>
<clipPath id="clip0_3054_766">
<rect width="721.943" height="767.486" fill="white" transform="matrix(1 0 0 -1 0 767.486)"/>
</clipPath>
</defs>
</svg>
