<svg width="2250" height="884" viewBox="0 0 2250 884" fill="none" xmlns="http://www.w3.org/2000/svg">
<g clip-path="url(#clip0_63_27)">
<path d="M2077.2 1.51858C2075.47 3.78524 2050.67 104.852 2042.4 143.919C2035.87 174.719 2024.93 233.919 2024.93 238.719C2024.93 240.452 2023.33 241.519 2019.33 242.585C1993.2 249.519 1917.2 271.519 1910.27 274.185C1899.6 278.319 1886.93 286.585 1886.93 289.252C1886.93 290.319 1888.53 292.052 1890.4 293.119C1896 296.319 1916 292.319 1949.6 281.252C1989.47 268.185 2020.13 259.785 2020.67 261.785C2020.8 262.719 2019.6 274.452 2017.73 288.052C2005.07 381.652 1998.27 475.652 1998.27 557.919C1998.27 674.185 2010.13 750.585 2038.67 817.919C2046.13 835.385 2049.47 841.252 2052.27 841.252C2055.07 841.252 2054.8 837.919 2050.93 822.719C2041.87 786.719 2031.73 732.852 2026.27 692.052C2014.53 602.852 2016.27 492.052 2031.6 341.919C2035.73 301.919 2041.2 257.652 2042.27 255.919C2044.27 252.719 2118.67 235.785 2162.93 228.585C2193.07 223.652 2216.53 217.252 2218 213.519C2218.4 212.319 2217.33 210.452 2215.47 208.852C2212.53 206.452 2210.8 206.319 2194.93 206.985C2185.47 207.385 2172.53 208.719 2166.27 209.919C2139.33 215.119 2094.4 224.585 2071.07 230.052C2057.2 233.252 2045.47 235.519 2045.07 235.252C2044.13 234.185 2051.73 184.719 2059.73 140.052C2066.53 102.319 2075.07 60.5852 2083.07 26.3186C2085.47 15.5186 2087.2 5.78524 2086.8 4.85191C2086.4 3.78524 2084.67 2.31858 2082.8 1.38524C2078.67 -0.481424 2078.93 -0.481424 2077.2 1.51858Z" fill="#C9A84C"/>
<path d="M2077.2 1.51858C2075.47 3.78524 2050.67 104.852 2042.4 143.919C2035.87 174.719 2024.93 233.919 2024.93 238.719C2024.93 240.452 2023.33 241.519 2019.33 242.585C1993.2 249.519 1917.2 271.519 1910.27 274.185C1899.6 278.319 1886.93 286.585 1886.93 289.252C1886.93 290.319 1888.53 292.052 1890.4 293.119C1896 296.319 1916 292.319 1949.6 281.252C1989.47 268.185 2020.13 259.785 2020.67 261.785C2020.8 262.719 2019.6 274.452 2017.73 288.052C2005.07 381.652 1998.27 475.652 1998.27 557.919C1998.27 674.185 2010.13 750.585 2038.67 817.919C2046.13 835.385 2049.47 841.252 2052.27 841.252C2055.07 841.252 2054.8 837.919 2050.93 822.719C2041.87 786.719 2031.73 732.852 2026.27 692.052C2014.53 602.852 2016.27 492.052 2031.6 341.919C2035.73 301.919 2041.2 257.652 2042.27 255.919C2044.27 252.719 2118.67 235.785 2162.93 228.585C2193.07 223.652 2216.53 217.252 2218 213.519C2218.4 212.319 2217.33 210.452 2215.47 208.852C2212.53 206.452 2210.8 206.319 2194.93 206.985C2185.47 207.385 2172.53 208.719 2166.27 209.919C2139.33 215.119 2094.4 224.585 2071.07 230.052C2057.2 233.252 2045.47 235.519 2045.07 235.252C2044.13 234.185 2051.73 184.719 2059.73 140.052C2066.53 102.319 2075.07 60.5852 2083.07 26.3186C2085.47 15.5186 2087.2 5.78524 2086.8 4.85191C2086.4 3.78524 2084.67 2.31858 2082.8 1.38524C2078.67 -0.481424 2078.93 -0.481424 2077.2 1.51858Z" fill="url(#paint0_linear_63_27)"/>
<path d="M1416.93 72.7176C1382.27 75.6509 1360.93 79.1176 1334.93 85.9176C1287.47 98.3176 1239.47 119.118 1186.93 149.918C1124.4 186.584 1090.53 218.051 1070.93 257.784C1045.07 310.184 1055.2 360.984 1103.73 421.251C1139.07 465.251 1192 507.918 1270.93 555.918C1283.47 563.518 1294.4 570.451 1295.47 571.384C1296.93 572.718 1296.27 573.918 1292 578.718C1282 589.651 1255.47 622.851 1249.07 632.318C1229.2 661.784 1224.67 681.518 1233.33 700.318C1249.6 735.784 1315.2 750.051 1372.53 730.584C1388.53 725.118 1402.67 716.718 1412.93 706.584C1430.67 689.118 1433.2 672.718 1421.47 651.118C1416.53 642.184 1393.6 619.784 1378.27 608.984C1371.33 604.051 1356.4 594.451 1345.33 587.651C1334.13 580.851 1324.93 574.584 1324.93 573.918C1324.8 570.851 1370.53 527.918 1399.33 504.051C1416.27 489.918 1430.27 477.784 1430.27 477.251C1430.27 471.384 1410.8 480.051 1382.8 498.318C1361.2 512.451 1342.13 527.918 1322.67 546.984C1310.4 558.984 1305.87 562.718 1304 562.051C1296.8 559.251 1229.33 516.318 1207.6 500.584C1171.87 474.851 1134.27 440.584 1113.87 415.251C1068.67 359.118 1060.4 310.318 1087.2 259.918C1107.2 222.718 1142.67 191.384 1205.6 155.518C1291.6 106.718 1361.87 85.2509 1435.33 85.2509C1472.53 85.2509 1495.6 89.6509 1514.27 100.318C1532.67 110.718 1544.93 131.118 1544.93 151.251C1544.93 169.251 1534.53 194.584 1517.87 217.651C1490.8 255.118 1450.67 296.718 1351.6 390.184C1308.8 430.584 1311.73 427.118 1316.27 430.051C1318.93 431.784 1320.67 432.051 1323.07 431.118C1326.67 429.784 1376.13 388.718 1404.93 363.251C1415.6 353.784 1441.33 328.984 1462.27 308.051C1515.87 254.318 1536.8 228.984 1550.93 200.584C1560.27 181.784 1562.8 172.051 1562.8 155.918C1562.67 134.451 1556.67 120.584 1540.13 104.318C1524.93 89.2509 1500.93 78.7176 1472.27 74.5843C1462 73.1176 1426.4 71.9176 1416.93 72.7176ZM1336.67 596.184C1385.07 626.318 1399.2 638.184 1407.87 656.184C1411.6 663.784 1411.6 674.584 1407.87 682.984C1396.53 708.584 1350 727.518 1305.47 724.718C1292 723.918 1276.13 720.318 1268.67 716.451C1262.53 713.251 1254.27 705.251 1251.33 699.518C1247.07 690.984 1248.27 677.784 1254.53 665.118C1260.53 653.251 1277.87 629.118 1296.93 605.918C1304.67 596.584 1311.87 587.918 1312.93 586.451C1314 585.118 1315.47 584.051 1316 583.918C1316.67 583.918 1325.87 589.384 1336.67 596.184Z" fill="#C9A84C"/>
<path d="M1416.93 72.7176C1382.27 75.6509 1360.93 79.1176 1334.93 85.9176C1287.47 98.3176 1239.47 119.118 1186.93 149.918C1124.4 186.584 1090.53 218.051 1070.93 257.784C1045.07 310.184 1055.2 360.984 1103.73 421.251C1139.07 465.251 1192 507.918 1270.93 555.918C1283.47 563.518 1294.4 570.451 1295.47 571.384C1296.93 572.718 1296.27 573.918 1292 578.718C1282 589.651 1255.47 622.851 1249.07 632.318C1229.2 661.784 1224.67 681.518 1233.33 700.318C1249.6 735.784 1315.2 750.051 1372.53 730.584C1388.53 725.118 1402.67 716.718 1412.93 706.584C1430.67 689.118 1433.2 672.718 1421.47 651.118C1416.53 642.184 1393.6 619.784 1378.27 608.984C1371.33 604.051 1356.4 594.451 1345.33 587.651C1334.13 580.851 1324.93 574.584 1324.93 573.918C1324.8 570.851 1370.53 527.918 1399.33 504.051C1416.27 489.918 1430.27 477.784 1430.27 477.251C1430.27 471.384 1410.8 480.051 1382.8 498.318C1361.2 512.451 1342.13 527.918 1322.67 546.984C1310.4 558.984 1305.87 562.718 1304 562.051C1296.8 559.251 1229.33 516.318 1207.6 500.584C1171.87 474.851 1134.27 440.584 1113.87 415.251C1068.67 359.118 1060.4 310.318 1087.2 259.918C1107.2 222.718 1142.67 191.384 1205.6 155.518C1291.6 106.718 1361.87 85.2509 1435.33 85.2509C1472.53 85.2509 1495.6 89.6509 1514.27 100.318C1532.67 110.718 1544.93 131.118 1544.93 151.251C1544.93 169.251 1534.53 194.584 1517.87 217.651C1490.8 255.118 1450.67 296.718 1351.6 390.184C1308.8 430.584 1311.73 427.118 1316.27 430.051C1318.93 431.784 1320.67 432.051 1323.07 431.118C1326.67 429.784 1376.13 388.718 1404.93 363.251C1415.6 353.784 1441.33 328.984 1462.27 308.051C1515.87 254.318 1536.8 228.984 1550.93 200.584C1560.27 181.784 1562.8 172.051 1562.8 155.918C1562.67 134.451 1556.67 120.584 1540.13 104.318C1524.93 89.2509 1500.93 78.7176 1472.27 74.5843C1462 73.1176 1426.4 71.9176 1416.93 72.7176ZM1336.67 596.184C1385.07 626.318 1399.2 638.184 1407.87 656.184C1411.6 663.784 1411.6 674.584 1407.87 682.984C1396.53 708.584 1350 727.518 1305.47 724.718C1292 723.918 1276.13 720.318 1268.67 716.451C1262.53 713.251 1254.27 705.251 1251.33 699.518C1247.07 690.984 1248.27 677.784 1254.53 665.118C1260.53 653.251 1277.87 629.118 1296.93 605.918C1304.67 596.584 1311.87 587.918 1312.93 586.451C1314 585.118 1315.47 584.051 1316 583.918C1316.67 583.918 1325.87 589.384 1336.67 596.184Z" fill="url(#paint1_linear_63_27)"/>
<path d="M200.934 74.7181C162.534 81.2514 119.334 135.918 90.8008 213.918C88.4008 220.451 86.4008 224.718 86.2675 223.251C83.6008 158.451 83.2008 154.718 78.0008 138.585C74.4008 127.651 68.5342 116.985 62.2675 110.451C58.2675 106.185 56.4008 105.251 52.4008 105.251H47.4675L40.2675 120.185C22.4008 158.051 8.80083 206.051 2.93417 251.918C-1.06583 283.385 -0.9325 350.585 3.0675 354.585C3.73417 355.251 5.73417 356.051 7.4675 356.185L10.6675 356.585L10.8008 318.585C11.0675 286.585 11.6008 277.518 14.1342 261.251C20.5342 219.385 32.2675 180.718 50.1342 142.185C53.0675 135.651 56.0008 130.718 56.6675 131.118C58.1342 132.051 61.8675 144.985 63.7342 155.651C64.5342 159.785 65.4675 193.785 65.7342 231.918L66.2675 300.585L62.2675 323.918C51.3342 388.451 46.1342 449.518 46.0008 515.918L45.8675 553.918L40.0008 563.251C28.5342 581.251 20.2675 601.651 16.8008 619.651C14.6675 631.118 16.0008 655.385 19.4675 666.185C28.1342 693.251 47.7342 715.518 73.6008 727.918C87.3342 734.585 97.2008 737.118 112.934 738.185C166.534 741.651 226.668 699.385 266.134 630.585C293.334 583.251 312.001 518.451 321.734 437.251C324.668 412.985 325.734 343.118 323.734 315.918C319.201 256.318 306.401 194.185 290.668 154.585C284.134 138.051 273.068 117.118 265.334 106.985C246.668 82.0514 224.134 70.7181 200.934 74.7181ZM227.068 93.1181C255.068 105.785 282.268 168.451 296.134 252.318C302.801 291.651 304.268 312.051 304.268 360.585C304.268 406.451 303.468 418.718 298.134 455.251C292.801 492.185 280.934 540.185 269.468 571.518C262.401 590.985 246.401 622.718 235.868 638.585C191.601 705.251 122.401 738.585 77.7342 714.851C74.0008 712.985 66.4008 706.851 60.9342 701.251C49.7342 690.051 42.5342 677.785 38.9342 663.918C36.4008 654.318 36.1342 635.251 38.1342 624.585C39.7342 616.585 45.6008 598.718 47.3342 596.985C48.0008 596.318 48.9342 601.385 49.4675 609.518C50.5342 624.851 52.1342 628.451 58.9342 631.385C64.5342 633.651 66.4008 633.785 69.3342 631.518C71.2008 630.185 72.0008 624.185 74.2675 597.251C75.7342 579.251 77.3342 560.451 77.7342 555.518L78.5342 546.451L91.4675 533.385C127.601 497.118 177.734 466.185 230.001 447.918C236.668 445.518 242.268 443.118 242.268 442.585C242.268 442.051 241.068 440.585 239.468 439.118C236.801 436.718 236.401 436.718 225.468 438.985C177.468 448.851 128.801 472.851 91.3342 504.985C86.0008 509.518 81.4675 512.718 81.0675 511.785C80.8008 510.985 81.3342 496.718 82.1342 480.185C84.6675 431.385 86.2675 377.651 86.2675 342.851C86.2675 307.118 86.6675 304.851 98.2675 263.251C118.268 191.518 144.268 141.118 177.334 109.651C195.868 92.0514 212.534 86.5847 227.068 93.1181Z" fill="#C9A84C"/>
<path d="M200.934 74.7181C162.534 81.2514 119.334 135.918 90.8008 213.918C88.4008 220.451 86.4008 224.718 86.2675 223.251C83.6008 158.451 83.2008 154.718 78.0008 138.585C74.4008 127.651 68.5342 116.985 62.2675 110.451C58.2675 106.185 56.4008 105.251 52.4008 105.251H47.4675L40.2675 120.185C22.4008 158.051 8.80083 206.051 2.93417 251.918C-1.06583 283.385 -0.9325 350.585 3.0675 354.585C3.73417 355.251 5.73417 356.051 7.4675 356.185L10.6675 356.585L10.8008 318.585C11.0675 286.585 11.6008 277.518 14.1342 261.251C20.5342 219.385 32.2675 180.718 50.1342 142.185C53.0675 135.651 56.0008 130.718 56.6675 131.118C58.1342 132.051 61.8675 144.985 63.7342 155.651C64.5342 159.785 65.4675 193.785 65.7342 231.918L66.2675 300.585L62.2675 323.918C51.3342 388.451 46.1342 449.518 46.0008 515.918L45.8675 553.918L40.0008 563.251C28.5342 581.251 20.2675 601.651 16.8008 619.651C14.6675 631.118 16.0008 655.385 19.4675 666.185C28.1342 693.251 47.7342 715.518 73.6008 727.918C87.3342 734.585 97.2008 737.118 112.934 738.185C166.534 741.651 226.668 699.385 266.134 630.585C293.334 583.251 312.001 518.451 321.734 437.251C324.668 412.985 325.734 343.118 323.734 315.918C319.201 256.318 306.401 194.185 290.668 154.585C284.134 138.051 273.068 117.118 265.334 106.985C246.668 82.0514 224.134 70.7181 200.934 74.7181ZM227.068 93.1181C255.068 105.785 282.268 168.451 296.134 252.318C302.801 291.651 304.268 312.051 304.268 360.585C304.268 406.451 303.468 418.718 298.134 455.251C292.801 492.185 280.934 540.185 269.468 571.518C262.401 590.985 246.401 622.718 235.868 638.585C191.601 705.251 122.401 738.585 77.7342 714.851C74.0008 712.985 66.4008 706.851 60.9342 701.251C49.7342 690.051 42.5342 677.785 38.9342 663.918C36.4008 654.318 36.1342 635.251 38.1342 624.585C39.7342 616.585 45.6008 598.718 47.3342 596.985C48.0008 596.318 48.9342 601.385 49.4675 609.518C50.5342 624.851 52.1342 628.451 58.9342 631.385C64.5342 633.651 66.4008 633.785 69.3342 631.518C71.2008 630.185 72.0008 624.185 74.2675 597.251C75.7342 579.251 77.3342 560.451 77.7342 555.518L78.5342 546.451L91.4675 533.385C127.601 497.118 177.734 466.185 230.001 447.918C236.668 445.518 242.268 443.118 242.268 442.585C242.268 442.051 241.068 440.585 239.468 439.118C236.801 436.718 236.401 436.718 225.468 438.985C177.468 448.851 128.801 472.851 91.3342 504.985C86.0008 509.518 81.4675 512.718 81.0675 511.785C80.8008 510.985 81.3342 496.718 82.1342 480.185C84.6675 431.385 86.2675 377.651 86.2675 342.851C86.2675 307.118 86.6675 304.851 98.2675 263.251C118.268 191.518 144.268 141.118 177.334 109.651C195.868 92.0514 212.534 86.5847 227.068 93.1181Z" fill="url(#paint2_linear_63_27)"/>
<path d="M1003.6 108.851C1000.54 112.451 993.735 122.318 988.668 130.985C974.668 154.718 972.802 162.851 980.268 166.318C986.002 168.985 990.802 168.185 994.535 164.185C999.068 159.251 1023.6 113.251 1023.6 109.518C1023.6 106.318 1018.27 102.585 1013.74 102.585C1010 102.585 1008.14 103.651 1003.6 108.851Z" fill="#C9A84C"/>
<path d="M1003.6 108.851C1000.54 112.451 993.735 122.318 988.668 130.985C974.668 154.718 972.802 162.851 980.268 166.318C986.002 168.985 990.802 168.185 994.535 164.185C999.068 159.251 1023.6 113.251 1023.6 109.518C1023.6 106.318 1018.27 102.585 1013.74 102.585C1010 102.585 1008.14 103.651 1003.6 108.851Z" fill="url(#paint3_linear_63_27)"/>
<path d="M2122 301.384C2099.87 304.717 2079.2 328.451 2072.27 358.584C2069.33 371.517 2069.2 394.717 2072.13 407.251C2078.8 435.784 2093.33 459.517 2123.6 491.251C2132 500.051 2140.67 509.251 2142.93 511.651L2146.8 515.917L2140 522.984C2120.4 542.984 2087.33 589.784 2072.4 618.584C2056.4 649.384 2048.93 673.251 2048.8 694.184C2048.53 719.517 2059.6 733.384 2084.93 739.384C2103.6 743.917 2124.67 738.584 2146.53 723.784C2157.73 716.184 2182.8 690.851 2190.53 679.117C2224.67 627.651 2220.4 577.117 2177.73 527.251C2174 522.851 2170.13 518.317 2169.2 517.117C2167.73 515.251 2168.8 513.917 2176.67 507.651C2195.2 492.584 2216 481.117 2237.6 473.917C2249.87 469.784 2251.07 468.984 2248.4 466.717C2246.93 465.517 2244 465.384 2235.6 466.584C2214.13 469.517 2191.87 479.117 2172.4 493.917C2166.67 498.317 2160.93 502.584 2159.73 503.517C2157.87 504.851 2155.07 502.317 2141.33 487.517C2132.4 477.784 2122.67 466.851 2119.73 463.117C2112.67 454.184 2103.6 438.584 2099.2 427.917C2092.13 410.451 2090.93 404.451 2091.07 385.251C2091.07 369.384 2091.6 366.051 2094.53 357.651C2098.93 345.384 2103.87 336.984 2111.47 328.851C2122.53 316.984 2134.27 313.784 2144 319.784C2159.6 329.384 2162.8 372.584 2151.07 416.584C2149.2 423.117 2147.47 429.517 2146.93 430.717C2146 433.384 2149.47 437.251 2152.8 437.251C2156.8 437.251 2172.13 398.851 2176.27 378.584C2181.6 352.851 2174.53 325.784 2159.33 312.717C2148.53 303.384 2135.33 299.517 2122 301.384ZM2166.67 539.384C2176.8 552.717 2186.27 570.851 2189.73 583.917C2192.8 595.384 2192.93 617.784 2190 628.584C2181.47 659.651 2161.87 687.117 2132.93 708.451C2111.6 724.184 2091.73 729.917 2078.93 724.051C2072.4 721.117 2069.87 718.317 2066 709.917C2052.4 679.784 2087.47 603.384 2144.93 538.184C2150.4 531.917 2155.6 526.984 2156.27 527.117C2157.07 527.251 2161.73 532.717 2166.67 539.384Z" fill="#C9A84C"/>
<path d="M2122 301.384C2099.87 304.717 2079.2 328.451 2072.27 358.584C2069.33 371.517 2069.2 394.717 2072.13 407.251C2078.8 435.784 2093.33 459.517 2123.6 491.251C2132 500.051 2140.67 509.251 2142.93 511.651L2146.8 515.917L2140 522.984C2120.4 542.984 2087.33 589.784 2072.4 618.584C2056.4 649.384 2048.93 673.251 2048.8 694.184C2048.53 719.517 2059.6 733.384 2084.93 739.384C2103.6 743.917 2124.67 738.584 2146.53 723.784C2157.73 716.184 2182.8 690.851 2190.53 679.117C2224.67 627.651 2220.4 577.117 2177.73 527.251C2174 522.851 2170.13 518.317 2169.2 517.117C2167.73 515.251 2168.8 513.917 2176.67 507.651C2195.2 492.584 2216 481.117 2237.6 473.917C2249.87 469.784 2251.07 468.984 2248.4 466.717C2246.93 465.517 2244 465.384 2235.6 466.584C2214.13 469.517 2191.87 479.117 2172.4 493.917C2166.67 498.317 2160.93 502.584 2159.73 503.517C2157.87 504.851 2155.07 502.317 2141.33 487.517C2132.4 477.784 2122.67 466.851 2119.73 463.117C2112.67 454.184 2103.6 438.584 2099.2 427.917C2092.13 410.451 2090.93 404.451 2091.07 385.251C2091.07 369.384 2091.6 366.051 2094.53 357.651C2098.93 345.384 2103.87 336.984 2111.47 328.851C2122.53 316.984 2134.27 313.784 2144 319.784C2159.6 329.384 2162.8 372.584 2151.07 416.584C2149.2 423.117 2147.47 429.517 2146.93 430.717C2146 433.384 2149.47 437.251 2152.8 437.251C2156.8 437.251 2172.13 398.851 2176.27 378.584C2181.6 352.851 2174.53 325.784 2159.33 312.717C2148.53 303.384 2135.33 299.517 2122 301.384ZM2166.67 539.384C2176.8 552.717 2186.27 570.851 2189.73 583.917C2192.8 595.384 2192.93 617.784 2190 628.584C2181.47 659.651 2161.87 687.117 2132.93 708.451C2111.6 724.184 2091.73 729.917 2078.93 724.051C2072.4 721.117 2069.87 718.317 2066 709.917C2052.4 679.784 2087.47 603.384 2144.93 538.184C2150.4 531.917 2155.6 526.984 2156.27 527.117C2157.07 527.251 2161.73 532.717 2166.67 539.384Z" fill="url(#paint4_linear_63_27)"/>
<path d="M1745.07 377.385C1731.73 380.052 1715.33 394.185 1704.8 412.185C1684.8 446.185 1675.47 507.785 1684.8 542.985C1690.4 564.319 1700.53 579.652 1713.33 586.185C1718.8 588.985 1721.47 589.385 1727.73 588.985C1742.53 587.919 1751.47 577.519 1761.6 549.252C1776.53 507.652 1789.6 490.852 1813.6 482.585C1817.87 481.119 1821.47 479.919 1821.73 479.919C1821.87 479.919 1821.73 489.385 1821.33 500.985C1820.27 531.252 1824.53 552.052 1835.47 568.852C1844.4 582.585 1854.13 589.252 1865.6 589.252C1881.87 589.252 1891.47 577.919 1902.93 545.119C1917.33 503.785 1932.27 487.252 1961.33 480.452C1972.8 477.785 1973.33 475.252 1962.27 475.785C1944.8 476.585 1928.4 484.185 1914.8 497.785C1904.8 507.919 1898.27 518.319 1891.73 534.985C1882.93 556.985 1875.07 568.852 1866.8 571.919C1857.07 575.652 1848.93 563.785 1843.33 537.919C1840.93 526.719 1841.33 494.185 1844.13 478.985C1850.4 443.919 1863.2 416.985 1881.47 400.185C1895.87 386.852 1902.67 397.652 1894.8 420.985C1889.6 436.452 1884.67 444.052 1868.8 460.719C1860.8 468.985 1854.27 476.719 1854.27 477.785C1854.27 480.052 1858.27 482.585 1861.73 482.585C1872.4 482.585 1896.13 460.852 1908.4 439.919C1922.93 415.385 1923.2 393.785 1909.33 383.119C1895.73 372.719 1877.87 375.519 1861.87 390.319C1844.67 406.452 1833.2 430.319 1825.6 465.252L1823.47 475.385L1814 476.852C1795.07 479.785 1776.13 492.585 1764.27 510.585C1760.8 515.652 1755.07 527.252 1751.47 536.185C1744.27 554.052 1738 564.319 1731.33 569.252C1723.2 575.252 1716.8 572.719 1710.93 561.119C1695.6 531.119 1699.73 470.452 1719.6 430.585C1729.2 411.519 1744.13 394.585 1751.6 394.585C1758.8 394.585 1760.27 403.652 1755.47 419.385C1750.67 434.985 1745.33 443.385 1729.33 460.185C1721.07 468.852 1714.27 476.452 1714.27 477.119C1714.27 477.652 1715.47 479.252 1716.93 480.585C1720.53 483.785 1726.27 482.452 1735.6 476.319C1750.53 466.452 1764.67 449.252 1774 429.652C1778.13 420.985 1778.93 417.652 1779.33 408.052C1779.87 396.852 1779.73 396.452 1775.47 389.919C1768.53 379.785 1757.07 374.985 1745.07 377.385Z" fill="#C9A84C"/>
<path d="M1745.07 377.385C1731.73 380.052 1715.33 394.185 1704.8 412.185C1684.8 446.185 1675.47 507.785 1684.8 542.985C1690.4 564.319 1700.53 579.652 1713.33 586.185C1718.8 588.985 1721.47 589.385 1727.73 588.985C1742.53 587.919 1751.47 577.519 1761.6 549.252C1776.53 507.652 1789.6 490.852 1813.6 482.585C1817.87 481.119 1821.47 479.919 1821.73 479.919C1821.87 479.919 1821.73 489.385 1821.33 500.985C1820.27 531.252 1824.53 552.052 1835.47 568.852C1844.4 582.585 1854.13 589.252 1865.6 589.252C1881.87 589.252 1891.47 577.919 1902.93 545.119C1917.33 503.785 1932.27 487.252 1961.33 480.452C1972.8 477.785 1973.33 475.252 1962.27 475.785C1944.8 476.585 1928.4 484.185 1914.8 497.785C1904.8 507.919 1898.27 518.319 1891.73 534.985C1882.93 556.985 1875.07 568.852 1866.8 571.919C1857.07 575.652 1848.93 563.785 1843.33 537.919C1840.93 526.719 1841.33 494.185 1844.13 478.985C1850.4 443.919 1863.2 416.985 1881.47 400.185C1895.87 386.852 1902.67 397.652 1894.8 420.985C1889.6 436.452 1884.67 444.052 1868.8 460.719C1860.8 468.985 1854.27 476.719 1854.27 477.785C1854.27 480.052 1858.27 482.585 1861.73 482.585C1872.4 482.585 1896.13 460.852 1908.4 439.919C1922.93 415.385 1923.2 393.785 1909.33 383.119C1895.73 372.719 1877.87 375.519 1861.87 390.319C1844.67 406.452 1833.2 430.319 1825.6 465.252L1823.47 475.385L1814 476.852C1795.07 479.785 1776.13 492.585 1764.27 510.585C1760.8 515.652 1755.07 527.252 1751.47 536.185C1744.27 554.052 1738 564.319 1731.33 569.252C1723.2 575.252 1716.8 572.719 1710.93 561.119C1695.6 531.119 1699.73 470.452 1719.6 430.585C1729.2 411.519 1744.13 394.585 1751.6 394.585C1758.8 394.585 1760.27 403.652 1755.47 419.385C1750.67 434.985 1745.33 443.385 1729.33 460.185C1721.07 468.852 1714.27 476.452 1714.27 477.119C1714.27 477.652 1715.47 479.252 1716.93 480.585C1720.53 483.785 1726.27 482.452 1735.6 476.319C1750.53 466.452 1764.67 449.252 1774 429.652C1778.13 420.985 1778.93 417.652 1779.33 408.052C1779.87 396.852 1779.73 396.452 1775.47 389.919C1768.53 379.785 1757.07 374.985 1745.07 377.385Z" fill="url(#paint5_linear_63_27)"/>
<path d="M420.4 384.585C400.4 389.652 382 403.918 367.467 425.652C357.6 440.452 340.933 474.052 336.267 488.585C327.733 514.985 326.667 542.985 333.467 557.918C337.733 567.518 339.867 569.785 347.467 574.318C351.867 576.852 355.067 577.652 360.8 577.652C373.467 577.652 383.733 570.718 398.267 552.452C406.8 541.785 429.067 506.718 433.733 496.718C437.333 488.985 437.2 488.852 439.467 511.385C441.2 529.252 444.8 540.452 451.2 547.785C459.467 557.652 466.4 559.385 476.533 554.452C487.067 549.385 499.6 531.652 511.733 504.852L517.6 491.785L518.4 512.852C518.8 524.452 519.867 536.585 520.8 539.918C525.733 557.518 538.667 568.452 550.933 565.118C562 562.052 569.867 547.652 577.6 516.585C588.8 471.785 608.133 433.385 618.933 434.852C621.2 435.252 621.6 436.452 622 443.252C622.267 447.652 621.467 463.518 620.4 478.585C616.933 524.585 616.533 535.785 618.133 557.118C620.267 587.518 624.267 600.052 633.733 606.452C639.2 610.185 647.067 610.718 651.867 607.652C657.2 604.185 660.533 593.252 662.933 571.785C666.267 540.718 670.933 525.652 681.867 508.985C686.933 501.118 699.867 487.918 702.4 487.918C702.8 487.918 704 492.585 704.8 498.185C709.733 528.985 731.067 545.785 752.933 535.785C772.133 527.118 784.667 511.252 808.133 465.918C820.133 442.852 823.733 437.652 828.4 436.452C833.2 435.252 837.333 439.785 842.4 451.785C852.667 476.318 860 502.985 864.267 532.185L866.4 546.452L855.733 559.385C819.6 602.985 791.867 654.052 773.733 710.318C767.467 729.918 754.933 780.185 752.8 794.452C750.933 807.785 751.867 827.518 754.933 835.918C758.133 845.118 765.733 855.252 773.333 860.452C791.2 872.852 812.667 868.852 833.067 849.518C857.2 826.852 874.933 785.918 883.467 733.252C888.667 701.118 889.6 686.185 889.467 635.918C889.467 593.785 889.067 583.918 886.4 562.585L883.333 537.918L899.2 522.718C916.267 506.185 936.8 489.252 953.467 477.785C964.933 470.052 965.333 468.052 954.267 474.585C934.4 486.318 912.667 502.585 893.733 519.785C888 524.985 883.067 529.118 882.8 528.852C882.533 528.585 880.667 520.585 878.8 511.118C871.867 476.585 858.933 444.185 846.8 430.718C839.867 422.985 833.467 419.652 825.6 419.652C812.533 419.652 805.333 427.785 788.133 461.385C781.067 475.252 771.733 491.918 767.467 498.452C751.2 523.252 737.067 529.385 728 515.785C724.933 511.118 724.533 508.852 723.867 494.318C723.333 479.518 723.467 478.052 725.733 476.318C727.733 474.852 727.867 474.318 726.4 473.385C724.4 472.052 724.667 469.252 728.533 449.385L730.667 438.052L726.933 434.985C724.267 432.585 722 431.918 718.533 432.185C713.733 432.585 713.6 432.718 710.533 442.585C708.8 448.052 706.533 458.985 705.333 466.718L703.2 480.852L697.333 484.452C677.333 497.118 662.933 525.252 652.133 572.585C650.267 580.585 648.133 589.652 647.333 592.585L646 597.918L643.6 591.785C637.733 577.118 636.8 535.252 640.933 481.918C642.533 462.852 643.333 444.585 642.933 441.252C641.2 429.252 635.067 421.918 625.733 420.318C619.333 419.385 613.6 422.852 608.4 430.985C601.6 441.652 588.667 468.185 581.867 485.385C568.4 519.385 555.867 546.585 551.2 551.518C547.867 555.118 544 555.518 543.067 552.185C536.267 528.852 538.533 482.718 548.267 452.185C550.267 445.785 551.333 439.918 550.933 438.452C549.6 434.452 538.8 429.918 535.067 431.652C532 432.985 528 444.318 522.4 467.518C519.067 481.385 513.333 492.452 498 515.518C484.8 535.252 474.667 546.585 470.4 546.585C464.4 546.585 461.467 534.985 459.6 505.252C458.933 493.518 457.733 481.518 456.933 478.585C454.267 468.585 445.467 461.252 436.133 461.252C427.733 461.252 422.133 468.718 405.6 501.385C388.933 534.185 384.133 542.185 376 550.052C366.133 559.652 356.533 559.118 352.133 548.585C348 538.585 350.667 512.985 357.867 492.718C363.067 477.785 377.6 448.585 385.6 436.585C394.933 422.452 408.8 409.518 420.4 403.785C428.4 399.785 430.933 399.252 439.733 399.252C448.533 399.252 450.533 399.652 455.467 402.985C458.933 405.252 463.067 409.918 466 414.852C475.867 430.985 476.133 431.252 480.267 431.252C483.867 431.252 484.267 430.718 484.667 426.852C484.933 424.452 484.133 419.118 482.933 414.985C481.2 408.852 479.067 405.918 472.267 398.985C461.333 388.052 452.4 383.785 438.533 383.118C432.133 382.852 425.333 383.385 420.4 384.585ZM870.133 588.985C872 614.718 872 655.118 870.267 679.252C865.467 744.718 853.6 788.452 832.267 820.718C814 848.052 799.2 858.052 785.867 852.185C773.333 846.585 768.133 829.785 769.467 798.585C772.267 725.918 805.2 639.652 856 571.652L866.933 556.985L867.867 562.718C868.4 565.918 869.333 577.785 870.133 588.985Z" fill="#C9A84C"/>
<path d="M420.4 384.585C400.4 389.652 382 403.918 367.467 425.652C357.6 440.452 340.933 474.052 336.267 488.585C327.733 514.985 326.667 542.985 333.467 557.918C337.733 567.518 339.867 569.785 347.467 574.318C351.867 576.852 355.067 577.652 360.8 577.652C373.467 577.652 383.733 570.718 398.267 552.452C406.8 541.785 429.067 506.718 433.733 496.718C437.333 488.985 437.2 488.852 439.467 511.385C441.2 529.252 444.8 540.452 451.2 547.785C459.467 557.652 466.4 559.385 476.533 554.452C487.067 549.385 499.6 531.652 511.733 504.852L517.6 491.785L518.4 512.852C518.8 524.452 519.867 536.585 520.8 539.918C525.733 557.518 538.667 568.452 550.933 565.118C562 562.052 569.867 547.652 577.6 516.585C588.8 471.785 608.133 433.385 618.933 434.852C621.2 435.252 621.6 436.452 622 443.252C622.267 447.652 621.467 463.518 620.4 478.585C616.933 524.585 616.533 535.785 618.133 557.118C620.267 587.518 624.267 600.052 633.733 606.452C639.2 610.185 647.067 610.718 651.867 607.652C657.2 604.185 660.533 593.252 662.933 571.785C666.267 540.718 670.933 525.652 681.867 508.985C686.933 501.118 699.867 487.918 702.4 487.918C702.8 487.918 704 492.585 704.8 498.185C709.733 528.985 731.067 545.785 752.933 535.785C772.133 527.118 784.667 511.252 808.133 465.918C820.133 442.852 823.733 437.652 828.4 436.452C833.2 435.252 837.333 439.785 842.4 451.785C852.667 476.318 860 502.985 864.267 532.185L866.4 546.452L855.733 559.385C819.6 602.985 791.867 654.052 773.733 710.318C767.467 729.918 754.933 780.185 752.8 794.452C750.933 807.785 751.867 827.518 754.933 835.918C758.133 845.118 765.733 855.252 773.333 860.452C791.2 872.852 812.667 868.852 833.067 849.518C857.2 826.852 874.933 785.918 883.467 733.252C888.667 701.118 889.6 686.185 889.467 635.918C889.467 593.785 889.067 583.918 886.4 562.585L883.333 537.918L899.2 522.718C916.267 506.185 936.8 489.252 953.467 477.785C964.933 470.052 965.333 468.052 954.267 474.585C934.4 486.318 912.667 502.585 893.733 519.785C888 524.985 883.067 529.118 882.8 528.852C882.533 528.585 880.667 520.585 878.8 511.118C871.867 476.585 858.933 444.185 846.8 430.718C839.867 422.985 833.467 419.652 825.6 419.652C812.533 419.652 805.333 427.785 788.133 461.385C781.067 475.252 771.733 491.918 767.467 498.452C751.2 523.252 737.067 529.385 728 515.785C724.933 511.118 724.533 508.852 723.867 494.318C723.333 479.518 723.467 478.052 725.733 476.318C727.733 474.852 727.867 474.318 726.4 473.385C724.4 472.052 724.667 469.252 728.533 449.385L730.667 438.052L726.933 434.985C724.267 432.585 722 431.918 718.533 432.185C713.733 432.585 713.6 432.718 710.533 442.585C708.8 448.052 706.533 458.985 705.333 466.718L703.2 480.852L697.333 484.452C677.333 497.118 662.933 525.252 652.133 572.585C650.267 580.585 648.133 589.652 647.333 592.585L646 597.918L643.6 591.785C637.733 577.118 636.8 535.252 640.933 481.918C642.533 462.852 643.333 444.585 642.933 441.252C641.2 429.252 635.067 421.918 625.733 420.318C619.333 419.385 613.6 422.852 608.4 430.985C601.6 441.652 588.667 468.185 581.867 485.385C568.4 519.385 555.867 546.585 551.2 551.518C547.867 555.118 544 555.518 543.067 552.185C536.267 528.852 538.533 482.718 548.267 452.185C550.267 445.785 551.333 439.918 550.933 438.452C549.6 434.452 538.8 429.918 535.067 431.652C532 432.985 528 444.318 522.4 467.518C519.067 481.385 513.333 492.452 498 515.518C484.8 535.252 474.667 546.585 470.4 546.585C464.4 546.585 461.467 534.985 459.6 505.252C458.933 493.518 457.733 481.518 456.933 478.585C454.267 468.585 445.467 461.252 436.133 461.252C427.733 461.252 422.133 468.718 405.6 501.385C388.933 534.185 384.133 542.185 376 550.052C366.133 559.652 356.533 559.118 352.133 548.585C348 538.585 350.667 512.985 357.867 492.718C363.067 477.785 377.6 448.585 385.6 436.585C394.933 422.452 408.8 409.518 420.4 403.785C428.4 399.785 430.933 399.252 439.733 399.252C448.533 399.252 450.533 399.652 455.467 402.985C458.933 405.252 463.067 409.918 466 414.852C475.867 430.985 476.133 431.252 480.267 431.252C483.867 431.252 484.267 430.718 484.667 426.852C484.933 424.452 484.133 419.118 482.933 414.985C481.2 408.852 479.067 405.918 472.267 398.985C461.333 388.052 452.4 383.785 438.533 383.118C432.133 382.852 425.333 383.385 420.4 384.585ZM870.133 588.985C872 614.718 872 655.118 870.267 679.252C865.467 744.718 853.6 788.452 832.267 820.718C814 848.052 799.2 858.052 785.867 852.185C773.333 846.585 768.133 829.785 769.467 798.585C772.267 725.918 805.2 639.652 856 571.652L866.933 556.985L867.867 562.718C868.4 565.918 869.333 577.785 870.133 588.985Z" fill="url(#paint6_linear_63_27)"/>
<path d="M1674.93 414.851C1670.8 418.051 1664.67 424.184 1661.33 428.584C1643.47 452.318 1636 480.984 1634.4 532.051C1633.73 556.184 1633.2 561.251 1631.2 564.318C1629.87 566.318 1628 567.918 1627.07 567.918C1625.2 567.918 1617.73 550.184 1613.73 536.051C1612.53 532.051 1610 518.318 1608.13 505.384C1604.4 480.051 1599.87 463.518 1596 460.584C1592.53 457.918 1587.87 458.184 1586.4 461.118C1585.6 462.451 1584.4 469.918 1583.73 477.518C1582.13 493.384 1581.07 498.718 1575.33 519.251C1571.07 534.451 1565.6 547.918 1563.07 549.651C1560.93 551.118 1555.47 549.518 1550.8 545.918C1547.33 543.251 1546.27 540.851 1543.2 528.318C1541.2 520.451 1539.07 509.651 1538.27 504.584C1536.53 492.451 1536.67 456.318 1538.27 445.251C1541.73 423.651 1541.73 423.518 1536.93 419.518C1527.47 411.518 1518.27 417.384 1518.27 431.384C1518.27 433.784 1516.53 440.584 1514.27 446.451C1510.13 457.651 1505.6 478.851 1506.8 481.651C1507.07 482.584 1507.47 482.318 1507.47 480.984C1507.6 477.651 1514.13 457.518 1515.33 456.718C1515.87 456.451 1516.27 464.318 1516.4 474.451C1516.53 502.584 1522.4 534.451 1529.87 548.318C1539.33 565.651 1556.53 571.384 1568.27 561.118C1574 556.051 1576.27 549.251 1579.47 526.584C1580.93 516.718 1582.8 506.718 1583.6 504.584C1585.2 500.718 1585.33 500.984 1587.6 511.918C1596.93 556.718 1609.2 580.184 1626 585.784C1634.93 588.851 1637.87 587.784 1641.33 580.184C1643.73 574.584 1644.13 570.051 1645.07 537.918C1646.13 501.918 1647.2 490.451 1651.07 475.384C1656.8 452.718 1667.6 432.318 1682 416.984C1686 412.718 1686.8 409.251 1683.73 409.251C1683.07 409.251 1679.2 411.784 1674.93 414.851Z" fill="#C9A84C"/>
<path d="M1674.93 414.851C1670.8 418.051 1664.67 424.184 1661.33 428.584C1643.47 452.318 1636 480.984 1634.4 532.051C1633.73 556.184 1633.2 561.251 1631.2 564.318C1629.87 566.318 1628 567.918 1627.07 567.918C1625.2 567.918 1617.73 550.184 1613.73 536.051C1612.53 532.051 1610 518.318 1608.13 505.384C1604.4 480.051 1599.87 463.518 1596 460.584C1592.53 457.918 1587.87 458.184 1586.4 461.118C1585.6 462.451 1584.4 469.918 1583.73 477.518C1582.13 493.384 1581.07 498.718 1575.33 519.251C1571.07 534.451 1565.6 547.918 1563.07 549.651C1560.93 551.118 1555.47 549.518 1550.8 545.918C1547.33 543.251 1546.27 540.851 1543.2 528.318C1541.2 520.451 1539.07 509.651 1538.27 504.584C1536.53 492.451 1536.67 456.318 1538.27 445.251C1541.73 423.651 1541.73 423.518 1536.93 419.518C1527.47 411.518 1518.27 417.384 1518.27 431.384C1518.27 433.784 1516.53 440.584 1514.27 446.451C1510.13 457.651 1505.6 478.851 1506.8 481.651C1507.07 482.584 1507.47 482.318 1507.47 480.984C1507.6 477.651 1514.13 457.518 1515.33 456.718C1515.87 456.451 1516.27 464.318 1516.4 474.451C1516.53 502.584 1522.4 534.451 1529.87 548.318C1539.33 565.651 1556.53 571.384 1568.27 561.118C1574 556.051 1576.27 549.251 1579.47 526.584C1580.93 516.718 1582.8 506.718 1583.6 504.584C1585.2 500.718 1585.33 500.984 1587.6 511.918C1596.93 556.718 1609.2 580.184 1626 585.784C1634.93 588.851 1637.87 587.784 1641.33 580.184C1643.73 574.584 1644.13 570.051 1645.07 537.918C1646.13 501.918 1647.2 490.451 1651.07 475.384C1656.8 452.718 1667.6 432.318 1682 416.984C1686 412.718 1686.8 409.251 1683.73 409.251C1683.07 409.251 1679.2 411.784 1674.93 414.851Z" fill="url(#paint7_linear_63_27)"/>
<path d="M1019.73 813.251C1011.47 814.985 1005.6 819.518 1001.33 827.251C997.868 833.385 997.602 835.118 997.602 847.918C997.602 859.651 998.135 862.851 1000.53 867.251C1006.4 878.318 1014.67 882.718 1029.47 882.718C1034.67 882.851 1041.33 882.051 1044.27 880.985C1049.07 879.385 1049.6 878.718 1050 874.318L1050.4 869.385L1045.33 871.518C1038 874.718 1024 874.451 1018.27 871.251C1011.47 867.118 1008.67 860.585 1008.67 847.918C1008.67 830.451 1014.13 823.118 1027.73 821.651C1032.93 821.118 1037.07 821.651 1042.67 823.518L1050.27 826.185V821.651C1050.27 817.785 1049.6 816.851 1045.6 815.118C1039.47 812.585 1027.2 811.785 1019.73 813.251Z" fill="#664B0F"/>
<path d="M1851.6 813.385C1841.33 816.451 1835.47 826.718 1838.13 836.718C1840 843.785 1842.4 845.785 1855.73 851.385C1861.87 854.051 1868 857.118 1869.33 858.185C1872.53 861.118 1872.27 868.185 1868.8 871.385C1864.8 874.985 1851.73 874.718 1843.33 870.985L1836.93 868.051V873.251C1836.93 878.185 1837.2 878.451 1843.33 880.851C1851.2 883.785 1866.53 883.918 1872.27 880.985C1882.67 875.518 1886.4 862.051 1880.13 852.585C1877.87 849.118 1870.53 844.985 1861.07 841.918C1852.4 839.118 1848.93 835.918 1848.93 830.718C1848.93 822.051 1860.93 818.585 1872.8 823.918C1876 825.385 1878.8 826.585 1879.07 826.585C1879.33 826.585 1879.6 824.451 1879.6 821.918C1879.6 818.185 1878.93 816.985 1875.6 815.251C1870.53 812.585 1857.6 811.651 1851.6 813.385Z" fill="#664B0F"/>
<path d="M1121.73 814.318C1120.8 815.785 1095.6 880.985 1095.6 881.918C1095.6 882.318 1097.87 882.585 1100.8 882.585H1106L1109.07 873.518L1112.27 864.585L1127.07 864.185L1141.87 863.785L1145.07 872.852L1148.27 881.918L1154.13 882.318C1158.53 882.585 1159.73 882.318 1159.33 880.985C1158.93 880.052 1153.07 864.452 1146.27 846.185L1133.73 813.252H1128.13C1124.93 813.252 1122.13 813.785 1121.73 814.318ZM1133.33 840.852L1138.13 854.585H1127.6C1121.73 854.585 1116.93 854.052 1116.93 853.385C1116.93 850.318 1126.8 825.252 1127.6 826.185C1128.13 826.718 1130.67 833.385 1133.33 840.852Z" fill="#664B0F"/>
<path d="M1204.93 847.918V882.585H1210.93H1216.93V870.852C1216.93 860.052 1217.2 858.718 1220.13 856.052L1223.33 852.985L1235.07 867.785L1246.67 882.585H1254C1260.93 882.585 1261.2 882.452 1259.33 880.185C1252.53 872.318 1231.6 845.252 1231.6 844.318C1231.73 843.785 1234 840.718 1236.67 837.652C1239.33 834.718 1245.47 827.918 1250.13 822.718L1258.53 813.252L1251.47 813.385H1244.27L1230.67 830.185L1216.93 846.852V830.052V813.252H1210.93H1204.93V847.918Z" fill="#664B0F"/>
<path d="M1307.6 847.918V882.585H1330.27H1352.93V877.918V873.252H1336.27H1319.6V862.585V851.918H1334.27H1348.93V847.252V842.585H1334.27H1319.6V832.585V822.585H1336.27H1352.93V817.918V813.252H1330.27H1307.6V847.918Z" fill="#664B0F"/>
<path d="M1489.87 814.185C1488.93 815.785 1463.6 880.985 1463.6 881.785C1463.6 882.185 1465.87 882.585 1468.8 882.585H1474L1477.07 873.518L1480.27 864.585L1495.07 864.185L1509.87 863.785L1513.07 872.852L1516.27 881.918L1522.13 882.318C1526.53 882.585 1527.73 882.318 1527.33 880.985C1526.93 880.052 1521.07 864.452 1514.27 846.185L1501.73 813.252H1496.13C1492.93 813.252 1490.13 813.652 1489.87 814.185ZM1501.33 840.852L1506.13 854.585H1495.6C1489.73 854.585 1484.93 854.052 1484.93 853.385C1484.93 850.318 1494.8 825.252 1495.6 826.185C1496.13 826.718 1498.67 833.385 1501.33 840.852Z" fill="#664B0F"/>
<path d="M1574.27 847.785V882.585H1580.27H1586.27V869.251V855.918H1593.47H1600.67L1608.93 869.251L1617.2 882.585H1623.73C1631.47 882.585 1631.73 883.518 1619.73 865.385C1615.6 859.251 1612.93 853.918 1613.6 853.651C1621.6 850.851 1627.6 842.185 1627.6 833.251C1627.6 827.251 1624 820.185 1619.2 816.718C1615.87 814.185 1613.07 813.918 1594.8 813.518L1574.27 812.985V847.785ZM1612.27 825.918C1614.8 828.318 1615.6 830.585 1615.6 834.585C1615.6 838.585 1614.8 840.851 1612.27 843.251C1609.33 846.318 1608 846.585 1597.6 846.585H1586.27V834.585V822.585H1597.6C1608 822.585 1609.33 822.851 1612.27 825.918Z" fill="#664B0F"/>
<path d="M1672.93 817.918V822.585H1684.27H1695.6V852.585V882.585H1700.93H1706.27V852.585V822.585H1717.6H1728.93V817.918V813.252H1700.93H1672.93V817.918Z" fill="#664B0F"/>
<path d="M1774.27 847.918V882.585H1780.27H1786.27V847.918V813.252H1780.27H1774.27V847.918Z" fill="#664B0F"/>
<path d="M1927.6 817.918V822.585H1938.93H1950.27V852.585V882.585H1955.6H1960.93V852.585V822.585H1972.27H1983.6V817.918V813.252H1955.6H1927.6V817.918Z" fill="#664B0F"/>
</g>
<defs>
<linearGradient id="paint0_linear_63_27" x1="1886.93" y1="420.627" x2="2218.08" y2="420.627" gradientUnits="userSpaceOnUse">
<stop stop-color="#F6E9B6"/><stop offset="0.5" stop-color="#E8D08A"/>
<stop offset="1" stop-color="#C9A84C"/>
</linearGradient>
<linearGradient id="paint1_linear_63_27" x1="1057.1" y1="405.9" x2="1562.8" y2="405.9" gradientUnits="userSpaceOnUse">
<stop stop-color="#F6E9B6"/><stop offset="0.5" stop-color="#E8D08A"/>
<stop offset="1" stop-color="#C9A84C"/>
</linearGradient>
<linearGradient id="paint2_linear_63_27" x1="0" y1="406.157" x2="324.759" y2="406.157" gradientUnits="userSpaceOnUse">
<stop stop-color="#F6E9B6"/><stop offset="0.5" stop-color="#E8D08A"/>
<stop offset="1" stop-color="#C9A84C"/>
</linearGradient>
<linearGradient id="paint3_linear_63_27" x1="975.953" y1="135.228" x2="1023.6" y2="135.228" gradientUnits="userSpaceOnUse">
<stop stop-color="#F6E9B6"/><stop offset="0.5" stop-color="#E8D08A"/>
<stop offset="1" stop-color="#C9A84C"/>
</linearGradient>
<linearGradient id="paint4_linear_63_27" x1="2048.8" y1="520.939" x2="2249.57" y2="520.939" gradientUnits="userSpaceOnUse">
<stop stop-color="#F6E9B6"/><stop offset="0.5" stop-color="#E8D08A"/>
<stop offset="1" stop-color="#C9A84C"/>
</linearGradient>
<linearGradient id="paint5_linear_63_27" x1="1681.16" y1="483.014" x2="1970.26" y2="483.014" gradientUnits="userSpaceOnUse">
<stop stop-color="#F6E9B6"/><stop offset="0.5" stop-color="#E8D08A"/>
<stop offset="1" stop-color="#C9A84C"/>
</linearGradient>
<linearGradient id="paint6_linear_63_27" x1="329.025" y1="625.296" x2="962.323" y2="625.296" gradientUnits="userSpaceOnUse">
<stop stop-color="#F6E9B6"/><stop offset="0.5" stop-color="#E8D08A"/>
<stop offset="1" stop-color="#C9A84C"/>
</linearGradient>
<linearGradient id="paint7_linear_63_27" x1="1506.61" y1="498.318" x2="1685.6" y2="498.318" gradientUnits="userSpaceOnUse">
<stop stop-color="#F6E9B6"/><stop offset="0.5" stop-color="#E8D08A"/>
<stop offset="1" stop-color="#C9A84C"/>
</linearGradient>
<clipPath id="clip0_63_27">
<rect width="2249.57" height="883.119" fill="white" transform="matrix(1 0 0 -1 0 883.119)"/>
</clipPath>
</defs>
</svg>
