<svg width="290" height="283" viewBox="0 0 290 283" fill="none" xmlns="http://www.w3.org/2000/svg">
<path d="M214.863 264.411C151.362 300.888 80.92 277.742 50.7203 245.111C51.3429 244.197 52.1074 244.54 52.8774 244.858C84.9241 258.067 116.643 255.431 148.067 242.687C173.561 232.348 194.956 215.566 216.37 198.825C234.908 184.332 253.899 170.531 275.949 161.665C278.726 160.548 281.582 159.62 284.426 158.681C285.186 158.43 286.04 158.463 287.679 158.266C286.636 170.983 282.646 182.512 277.734 193.637C264.428 223.773 243.796 247.575 214.863 264.411Z" fill="#3F674C"/>
<path d="M133.87 240.479C109.655 248.09 85.7957 248.981 61.8784 240.926C33.8583 231.489 17.9792 210.918 9.2926 183.728C9.21433 183.484 9.47309 183.131 9.5752 182.827C10.5896 182.345 11.1066 183.046 11.5814 183.7C34.1963 214.863 73.1001 225.307 109.689 212.28C128.965 205.417 145.564 194.192 161.532 181.753C177.027 169.682 192.312 157.301 209.726 147.935C231.234 136.366 253.936 129.627 278.571 130.435C280.233 130.49 281.911 130.528 283.549 130.779C289.751 131.732 289.66 132.759 289.959 138.965C290.381 147.708 286.677 150.945 278.512 153.519C255.817 160.675 236.613 174.398 217.995 188.83C200.888 202.092 184.099 215.786 165.212 226.553C155.346 232.177 145.085 236.906 133.87 240.479Z" fill="#00809D"/>
<path d="M162.591 49.2554C160.545 49.2217 158.868 49.1395 157.237 49.3759C155.779 49.5873 154.405 50.3817 152 49.7767C152.477 39.6545 150.048 29.1866 153.607 19.0752C156.632 10.4794 165.158 5.41656 174.965 5.4291C184.782 5.44164 193.77 10.9503 197.107 19.0099C198.492 22.353 199.095 25.7216 197.336 29.1377C196.381 30.9917 196.212 32.8365 198.395 33.7761C200.412 34.6445 201.373 32.9428 202.225 31.4887C203.333 29.5951 204.094 27.5796 204.017 25.3355C203.908 22.1801 205.763 21.4236 208.501 21.4368C217.949 21.4823 226.281 31.6686 224.65 41.048C224.218 43.5293 222.672 43.6671 220.776 43.9641C210.121 45.6326 203.061 52.3828 200.875 62.9271C200.641 64.0576 200.591 65.2382 200.567 66.3978C200.532 68.0426 201.067 69.523 202.914 69.6562C204.691 69.7844 205.638 68.5246 205.837 66.8639C206.18 64.0198 206.793 61.2171 208.238 58.7723C211.367 53.4799 215.853 49.9578 222.18 49.4097C229.488 48.7766 229.495 48.8358 230.934 41.4727C231.056 40.847 231.263 40.238 231.438 39.5934C236.772 41.8349 239.742 47.955 238.205 55.0652C237.383 58.868 238.285 60.7401 241.49 62.6974C246.979 66.0485 249.347 71.7647 247.41 77.7751C246.089 81.8726 247.553 83.6457 250.613 85.8617C259.589 92.3636 263.579 104.223 260.776 114.726C258.168 124.502 251.497 128.633 241.621 126.102C228.78 122.812 215.806 121.333 202.556 121.863C195.534 122.144 188.665 123.222 181.822 124.7C179.911 125.113 178.055 126.176 175.713 125.418C173.969 121.388 176.201 118.2 178.324 115.068C179.489 113.349 181.075 111.636 178.655 110.001C176.603 108.615 175.234 110.454 174.122 111.86C171.271 115.464 169.196 119.448 169.552 124.215C169.759 126.987 168.653 128.469 166.085 129.455C161.632 131.163 157.294 133.172 153.042 134.998C151.373 133.239 151.896 131.488 151.894 129.901C151.867 107.738 151.874 85.5758 151.912 63.4134C151.922 57.0557 155.988 53.8351 162.269 55.1113C163.082 55.2765 163.89 55.5144 164.663 55.814C166.227 56.4199 167.72 56.4795 168.531 54.7885C169.451 52.8711 168.352 51.5852 166.702 50.7753C165.514 50.1921 164.225 49.8148 162.591 49.2554ZM233.26 82.0503C219.199 77.5987 207.392 81.4257 197.538 91.9722C195.862 93.7664 192.571 96.137 195.271 98.5969C198.149 101.219 199.782 97.3076 201.454 95.6005C210.688 86.1706 222.949 83.3098 233.811 88.2129C244.48 93.0287 246.745 102.536 239.297 111.416C238.257 112.657 237.315 113.749 238.75 115.271C240.119 116.725 241.498 116.083 242.779 115.202C246.23 112.826 248.424 109.632 249.034 105.409C250.515 95.1395 245.619 87.5937 233.26 82.0503ZM187.799 46.4003C187.48 44.7681 187.269 43.1057 186.823 41.509C185.127 35.4414 181.546 30.8391 175.968 27.8271C174.354 26.9557 172.764 26.601 171.521 28.2943C170.05 30.298 171.683 31.2309 173.047 32.2483C174.505 33.3351 176.107 34.3152 177.306 35.648C183.753 42.8174 183.673 51.9979 176.795 60.5932C171.45 67.2721 168.948 74.407 171.555 82.8495C172.135 84.7262 172.493 87.359 175.013 86.965C178.112 86.4804 177.356 83.6075 176.79 81.6686C174.75 74.6814 177.001 68.9738 181.41 63.6663C185.349 58.9245 187.493 53.4046 187.799 46.4003Z" fill="#00809D"/>
<path d="M23.0433 186.868C7.54316 169.879 1.64823 149.691 0.909862 127.571C0.172466 105.481 5.53825 84.7157 14.4557 64.7161C15.1156 63.236 15.4613 61.5061 17.0609 60.5895C18.625 60.4473 18.9895 61.7346 19.4621 62.7158C27.8257 80.0761 40.9292 93.415 55.5099 105.561C65.6054 113.97 76.2357 121.887 84.0345 132.676C100.045 154.825 102.871 178.988 94.5775 204.735C94.2186 205.849 93.8097 206.945 92.6326 207.497C90.9549 207.654 89.8543 206.515 88.6661 205.657C69.6373 191.911 55.1119 174.447 45.3266 153.079C44.9802 152.322 44.6655 151.551 44.3153 150.796C43.3759 148.771 42.3064 146.519 39.5849 147.661C36.9178 148.779 37.5422 151.046 38.4507 153.203C42.8055 163.54 48.4066 173.15 55.2411 182.039C61.9652 190.784 69.502 198.745 78.0654 205.728C79.4332 206.844 81.2105 207.677 82.0095 210.706C58.8275 210.939 39.3534 203.447 23.0433 186.868Z" fill="#F59E0B"/>
<path d="M62.5526 102.401C55.7676 96.7176 49.1675 91.3535 43.626 84.8539C35.9472 75.8474 36.14 68.2338 44.482 59.796C46.3139 57.9431 46.9629 56.0219 46.8416 53.5577C46.3521 43.6136 50.83 36.3054 58.9686 30.979C59.5257 30.6144 60.2652 30.3762 60.6146 29.869C66.7053 21.0264 74.9178 16.27 85.8249 16.2361C88.0459 16.2291 88.7177 13.6732 89.9038 12.1374C100.297 -1.3197 122.088 -4.11304 135.181 6.41422C142.166 12.031 145.336 19.756 145.395 28.3387C145.643 63.9888 145.451 99.6418 145.584 135.293C145.604 140.608 142.066 141.78 138.351 143.292C136.232 141.405 137.018 139.093 137.013 137.065C136.958 113.409 136.992 89.7517 136.987 66.0948C136.985 58.3009 134.31 55.8621 126.733 57.0914C123.917 57.5482 121.083 58.2307 120.32 54.623C119.532 50.8975 122.597 50.0543 125.356 49.0483C128.965 47.7326 132.583 49.3082 136.827 48.8471C136.797 39.9993 138.21 31.181 136.048 22.5729C133.897 14.0131 125.618 8.21713 116.666 8.05106C106.712 7.8664 97.0687 13.7837 94.1969 21.7944C93.2496 24.4369 93.2162 26.9955 94.5356 29.5213C95.8998 32.1326 94.9545 34.1563 92.592 35.3633C89.7618 36.8092 88.3285 34.7899 87.1376 32.6178C86.978 32.3267 86.8615 32.0118 86.7267 31.7072C83.2964 23.9553 78.8482 23.1937 72.4943 29.2652C70.8992 30.7895 69.7632 32.6242 68.9205 34.6369C66.6111 40.1524 67.4428 41.9181 73.1156 43.6732C83.2759 46.8168 90.3376 55.44 91.3441 65.8492C91.6001 68.4959 90.9301 70.5843 88.109 71.1868C85.1065 71.8279 84.0066 69.8262 83.3125 67.3501C79.761 54.6806 77.3485 52.4775 63.7294 51.1013C59.417 50.6656 60.5614 46.5181 58.0729 44.6217C54.347 48.2992 54.9324 52.8597 55.6245 57.1418C56.2057 60.7367 55.7234 63.0203 52.0809 64.5945C48.6603 66.0728 46.5108 69.0915 46.7012 72.9129C46.8995 76.8914 50.0361 79.3202 52.786 81.6975C54.4662 83.15 56.2946 81.5855 57.9516 81.0519C71.6496 76.641 88.2527 82.0595 96.6962 93.7708C97.9989 95.5776 99.1898 97.4002 97.7139 99.686C95.9102 102.479 93.1906 102.295 90.4271 99.0545C84.6515 92.282 77.6436 87.9585 68.493 87.8405C66.3325 87.8127 64.1349 87.8185 62.0818 89.5103C62.4963 91.9553 64.6592 93.0708 66.3337 94.5195C79.6825 106.069 93.5665 117.123 102.272 132.993C104.192 136.492 105.954 140.088 107.605 143.722C110.032 149.065 113.527 150.693 119.175 148.732C120.571 148.248 121.904 147.487 123.143 146.669C125.353 145.211 127.525 144.735 129.346 147.031C131.416 149.641 128.779 150.853 127.423 152.323C124.336 155.672 120.336 157.238 115.916 157.711C113.488 157.972 112.002 158.982 112.57 161.503C113.833 167.111 110.273 170.423 106.809 174.52C105.046 170.421 105.209 166.454 104.547 162.682C100.617 140.287 87.7714 123.555 70.8604 109.379C68.1797 107.132 65.504 104.879 62.5526 102.401Z" fill="#00809D"/>
<path d="M222.55 134.176C204.931 141.369 189.681 151.762 174.834 162.863C160.037 173.926 145.994 186.039 129.918 195.335C123.557 199.012 116.928 202.127 110.036 204.657C107.739 205.501 105.412 206.485 102.399 206.141C102.413 200.268 104.213 194.972 106.46 189.883C113.969 172.874 126.446 160.12 141.714 149.994C166.101 133.82 192.596 125.558 222.149 129.378C224.227 129.647 226.328 129.801 228.247 131.109C226.789 133.106 224.595 133.113 222.55 134.176Z" fill="#8CAA62"/>
<path d="M115.945 62.127C120.602 69.0604 121.589 76.2347 119.413 83.8548C118.71 86.3165 117.717 88.9475 114.47 88.3158C111.147 87.6692 111.143 85.0119 111.907 82.4015C113.976 75.3252 111.744 69.613 107.243 64.0099C98.1472 52.6878 100.293 37.3138 111.765 28.7213C113.079 27.737 114.576 26.9463 116.084 26.2845C118.135 25.3844 119.596 26.3445 120.621 28.1485C121.557 29.7962 121.509 31.3692 120.007 32.6335C118.74 33.7008 117.297 34.56 116.023 35.6204C108.824 41.6104 107.569 49.4466 112.55 57.3596C113.522 58.9035 114.664 60.3405 115.945 62.127Z" fill="#00809D"/>
<path d="M110.683 116.274C108.686 113.8 107.038 111.464 110.139 109.237C113.073 107.132 115.061 109.169 116.751 111.379C119.628 115.144 121.422 119.339 121.502 124.152C121.55 126.981 120.555 129.148 117.393 129.219C114.589 129.282 113.907 127.297 113.829 124.872C113.73 121.818 112.618 119.08 110.683 116.274Z" fill="#00809D"/>
</svg>
